# xmcd
#
# Track frame offsets: 
#        150
#        17814
#        42420
#        61213
#        76768
#        94316
#        113650
#        138089
#        158650
#
# Disc length: 2420 seconds
#
# Revision: 1
# Processed by: cddbd v1.5.2PL0 Copyright (c) Steve Scherf et al.
# Submitted via: ExactAudioCopy v0.95b4
#
DISCID=65097209
DTITLE=유영석 - 20th Anniversary [CD2)
DYEAR=2009
DGENRE=Pop
TTITLE0=W.H.I.T.E - Mocca
TTITLE1=우리 모두 여기에 - Will Star
TTITLE2=말할걸 그랬지 - 박지현
TTITLE3=자아도취 - 김현철, 유희열, 박지선
TTITLE4=오렌지 나라의 Alice - 커먼 그라운드
TTITLE5=사랑 그대로의 사랑 - 정지영
TTITLE6=슬픈 선물 - 홍경민
TTITLE7=겨울 바다 - 인순이
TTITLE8=마지막, 그 아쉬움은 기나긴 시간속에 묻어둔 채 - 남준봉 (여행스
TTITLE8=케치) and Miho
EXTD=
EXTT0=
EXTT1=
EXTT2=
EXTT3=
EXTT4=
EXTT5=
EXTT6=
EXTT7=
EXTT8=
PLAYORDER=
